<svg width="276" height="232" xmlns="http://www.w3.org/2000/svg" xmlns:xlink="http://www.w3.org/1999/xlink" overflow="hidden"><defs><clipPath id="clip0"><rect x="2291" y="1548" width="276" height="232"/></clipPath><clipPath id="clip1"><path d="M2335.39 1702.99 2379.26 1560.81 2521.43 1604.68 2477.57 1746.85Z" fill-rule="evenodd" clip-rule="evenodd"/></clipPath><clipPath id="clip2"><path d="M2335.39 1702.99 2379.26 1560.81 2521.43 1604.68 2477.57 1746.85Z" fill-rule="evenodd" clip-rule="evenodd"/></clipPath><clipPath id="clip3"><path d="M2335.39 1702.99 2379.26 1560.81 2521.43 1604.68 2477.57 1746.85Z" fill-rule="evenodd" clip-rule="evenodd"/></clipPath><clipPath id="clip4"><path d="M2460.68 1779.84 2291.84 1737.93 2333.75 1569.09 2502.59 1611Z" fill-rule="evenodd" clip-rule="evenodd"/></clipPath><clipPath id="clip5"><path d="M2460.68 1779.84 2291.84 1737.93 2333.75 1569.09 2502.59 1611Z" fill-rule="evenodd" clip-rule="evenodd"/></clipPath><clipPath id="clip6"><path d="M2460.68 1779.84 2291.84 1737.93 2333.75 1569.09 2502.59 1611Z" fill-rule="evenodd" clip-rule="evenodd"/></clipPath></defs><g clip-path="url(#clip0)" transform="translate(-2291 -1548)"><g clip-path="url(#clip1)"><g clip-path="url(#clip2)"><g clip-path="url(#clip3)"><path d="M2393.2 1587.19C2376.12 1596.22 2369.59 1617.38 2378.61 1634.46 2384 1644.65 2404.86 1654.51 2411.68 1661.6 2423.4 1673.71 2423.61 1681.9 2429.78 1681.78L2436.42 1694.32C2436.03 1694.49 2435.63 1694.68 2435.26 1694.87 2427.33 1699.05 2424.29 1708.86 2428.46 1716.79 2432.63 1724.72 2442.44 1727.77 2450.38 1723.59 2454.2 1721.58 2457.07 1718.13 2458.33 1713.99 2458.58 1713.19 2458.77 1712.36 2458.9 1711.52 2459.66 1711.89 2460.45 1712.2 2461.26 1712.45 2469.81 1715.11 2478.9 1710.35 2481.56 1701.8 2484.23 1693.25 2479.46 1684.16 2470.91 1681.49 2466.77 1680.2 2462.27 1680.63 2458.44 1682.67 2458.07 1682.88 2457.7 1683.09 2457.35 1683.33L2450.76 1670.78C2454.33 1665.61 2447.47 1660.85 2444.46 1644.25 2442.69 1634.49 2445.83 1611.96 2440.46 1601.77 2431.42 1584.7 2410.27 1578.18 2393.2 1587.19ZM2453.72 1689.63C2454.51 1691.15 2456.39 1691.73 2457.9 1690.93 2458.22 1690.77 2458.5 1690.55 2458.74 1690.29 2459.5 1689.44 2460.4 1688.73 2461.4 1688.18 2466.29 1685.6 2472.35 1687.47 2474.93 1692.36 2477.51 1697.25 2475.64 1703.3 2470.75 1705.89 2465.86 1708.47 2459.81 1706.6 2457.22 1701.71 2456.43 1700.18 2454.54 1699.59 2453.01 1700.38 2451.48 1701.18 2450.89 1703.06 2451.68 1704.59 2453.94 1709.64 2451.67 1715.56 2446.62 1717.82 2442.05 1719.86 2436.67 1718.21 2434.03 1713.96 2431.46 1709.06 2433.33 1703.01 2438.21 1700.42 2439.22 1699.9 2440.32 1699.57 2441.45 1699.43 2443.15 1699.19 2444.33 1697.62 2444.09 1695.93 2444.04 1695.57 2443.93 1695.22 2443.76 1694.9L2435.97 1680.17C2437.43 1679.53 2439.11 1678.72 2441.05 1677.68 2443 1676.64 2444.6 1675.74 2445.95 1674.9Z"/></g></g></g><g clip-path="url(#clip4)"><g clip-path="url(#clip5)"><g clip-path="url(#clip6)"><path d="M2312.89 1707.31 2357.19 1680.77C2358.51 1679.98 2360.09 1680.37 2360.88 1681.69 2361.68 1683.01 2361.28 1684.59 2359.97 1685.38L2315.62 1712.09 2319.32 1718.24 2363.67 1691.53C2364.98 1690.74 2366.57 1691.13 2367.36 1692.45 2368.15 1693.77 2367.76 1695.35 2366.44 1696.14L2322.1 1722.85 2325.8 1729 2370.28 1702.51C2371.6 1701.71 2373.18 1702.11 2373.97 1703.43 2374.77 1704.74 2374.37 1706.33 2373.06 1707.12L2328.75 1733.65 2331.13 1737.6C2331.13 1737.6 2355.64 1729.12 2374.08 1718.02 2385.28 1711.27 2390.45 1703.22 2391.1 1695.35 2391.1 1695.35 2391.26 1687.93 2395.43 1684.67L2483.12 1635.29C2488.17 1632.25 2489.83 1625.57 2486.83 1620.35 2483.79 1615.3 2477.1 1613.64 2471.88 1616.63L2387.23 1671.06C2382.4 1673.22 2375.76 1669.89 2375.76 1669.89 2368.5 1666.78 2358.97 1667.59 2347.77 1674.33 2331 1684.73 2310.51 1703.36 2310.51 1703.36L2312.89 1707.31Z"/></g></g></g><path d="M2552.9 1661.96C2558.87 1653.78 2569.48 1636.45 2565.54 1622.01 2560.94 1605.64 2542.63 1601.12 2537.22 1600.08 2542.76 1599.36 2556.4 1596.14 2556.87 1580.32 2557.19 1570.09 2545.95 1556.4 2539.05 1549 2537.64 1547.59 2535.45 1548.63 2535.96 1550.66 2537.85 1557.94 2539.92 1570.33 2538.37 1584.27 2538.5 1574.41 2535.32 1563.02 2522.63 1556.28 2513.94 1551.79 2499.46 1552.5 2490.76 1553.49 2488.84 1553.63 2488.71 1556.34 2490.35 1557.11 2497.36 1560.14 2508.82 1566.06 2518.55 1576.27 2514.32 1573.7 2509.14 1572.03 2502.56 1572.52 2493.38 1573.14 2483.61 1580.36 2477.81 1585.55 2476.41 1586.76 2477.67 1589.23 2479.47 1588.93 2485.61 1587.79 2495.36 1587.03 2506.1 1589.63 2505.27 1589.72 2504.4 1590.08 2503.64 1590.61 2500.31 1592.9 2499.59 1597.69 2502.05 1601.24 2503.05 1602.69 2504.51 1603.83 2506.19 1604.34 2475.89 1616.44 2439.54 1640.82 2429.25 1647.92 2427.58 1649.07 2427.22 1651.46 2428.45 1653.24L2435.8 1663.89C2437.14 1665.83 2439.92 1666.29 2441.66 1664.61 2457.37 1648.53 2482.5 1626.65 2513.41 1614.14 2512.37 1616.52 2512.61 1619.46 2514.28 1621.88 2516.73 1625.43 2521.46 1626.45 2524.79 1624.16 2525.24 1623.84 2525.55 1623.63 2525.89 1623.16 2521.3 1636.58 2513.34 1643.5 2510.4 1648.63 2509.64 1650.11 2510.86 1651.89 2512.41 1651.53 2519.38 1650.3 2533.25 1646.44 2540.76 1634.35 2544.5 1628.43 2544.45 1621.55 2542.96 1615.19 2548.9 1632.54 2549.76 1651.26 2549.71 1660.58 2549.43 1662.44 2551.87 1663.39 2552.9 1661.96Z" fill-rule="evenodd"/></g></svg>