<svg width="610" height="515" xmlns="http://www.w3.org/2000/svg" xmlns:xlink="http://www.w3.org/1999/xlink" overflow="hidden"><defs><clipPath id="clip0"><rect x="1337" y="1272" width="610" height="515"/></clipPath><clipPath id="clip1"><path d="M1434 1615.62 1531.29 1300.29 1846.62 1397.58 1749.34 1712.91Z" fill-rule="evenodd" clip-rule="evenodd"/></clipPath><clipPath id="clip2"><path d="M1434 1615.62 1531.29 1300.29 1846.62 1397.58 1749.34 1712.91Z" fill-rule="evenodd" clip-rule="evenodd"/></clipPath><clipPath id="clip3"><path d="M1434 1615.62 1531.29 1300.29 1846.62 1397.58 1749.34 1712.91Z" fill-rule="evenodd" clip-rule="evenodd"/></clipPath><clipPath id="clip4"><path d="M1711.88 1786.08 1337.41 1693.13 1430.36 1318.66 1804.83 1411.61Z" fill-rule="evenodd" clip-rule="evenodd"/></clipPath><clipPath id="clip5"><path d="M1711.88 1786.08 1337.41 1693.13 1430.36 1318.66 1804.83 1411.61Z" fill-rule="evenodd" clip-rule="evenodd"/></clipPath><clipPath id="clip6"><path d="M1711.88 1786.08 1337.41 1693.13 1430.36 1318.66 1804.83 1411.61Z" fill-rule="evenodd" clip-rule="evenodd"/></clipPath></defs><g clip-path="url(#clip0)" transform="translate(-1337 -1272)"><g clip-path="url(#clip1)"><g clip-path="url(#clip2)"><g clip-path="url(#clip3)"><path d="M1562.2 1358.79C1524.33 1378.82 1509.85 1425.75 1529.86 1463.64 1541.8 1486.25 1588.08 1508.11 1603.2 1523.82 1629.19 1550.69 1629.67 1568.86 1643.35 1568.59L1658.08 1596.41C1657.21 1596.78 1656.32 1597.2 1655.51 1597.63 1637.92 1606.88 1631.16 1628.65 1640.41 1646.24 1649.67 1663.83 1671.43 1670.58 1689.02 1661.33 1697.51 1656.87 1703.86 1649.2 1706.67 1640.03 1707.23 1638.24 1707.65 1636.41 1707.93 1634.56 1709.62 1635.37 1711.37 1636.05 1713.16 1636.6 1732.12 1642.52 1752.28 1631.94 1758.19 1612.99 1764.11 1594.03 1753.53 1573.87 1734.58 1567.95 1725.38 1565.08 1715.41 1566.03 1706.91 1570.57 1706.09 1571.04 1705.26 1571.5 1704.49 1572.02L1689.87 1544.2C1697.8 1532.72 1682.57 1522.16 1675.9 1485.35 1671.97 1463.7 1678.93 1413.73 1667.02 1391.13 1646.98 1353.28 1600.08 1338.81 1562.2 1358.79ZM1696.43 1586.01C1698.2 1589.37 1702.36 1590.65 1705.72 1588.88 1706.41 1588.52 1707.04 1588.04 1707.57 1587.46 1709.26 1585.58 1711.25 1583.99 1713.47 1582.78 1724.32 1577.05 1737.75 1581.2 1743.48 1592.05 1749.2 1602.89 1745.05 1616.33 1734.21 1622.05 1723.37 1627.77 1709.94 1623.63 1704.21 1612.8 1702.45 1609.4 1698.27 1608.08 1694.87 1609.84 1691.47 1611.61 1690.15 1615.79 1691.92 1619.18 1696.92 1630.38 1691.9 1643.52 1680.7 1648.52 1670.56 1653.05 1658.63 1649.39 1652.77 1639.95 1647.07 1629.1 1651.21 1615.68 1662.04 1609.93 1664.29 1608.78 1666.72 1608.04 1669.23 1607.72 1672.99 1607.2 1675.61 1603.72 1675.08 1599.96 1674.97 1599.16 1674.72 1598.39 1674.34 1597.68L1657.08 1565.02C1660.32 1563.61 1664.04 1561.8 1668.35 1559.5 1672.66 1557.2 1676.22 1555.2 1679.21 1553.32Z"/></g></g></g><g clip-path="url(#clip4)"><g clip-path="url(#clip5)"><g clip-path="url(#clip6)"><path d="M1384.09 1625.2 1482.34 1566.36C1485.27 1564.6 1488.78 1565.47 1490.54 1568.39 1492.29 1571.31 1491.42 1574.82 1488.5 1576.58L1390.15 1635.82 1398.36 1649.45 1496.71 1590.22C1499.63 1588.46 1503.15 1589.33 1504.9 1592.25 1506.66 1595.17 1505.79 1598.68 1502.87 1600.44L1404.52 1659.68 1412.73 1673.31 1511.38 1614.56C1514.3 1612.8 1517.81 1613.67 1519.57 1616.59 1521.33 1619.52 1520.46 1623.03 1517.53 1624.79L1419.28 1683.63 1424.56 1692.4C1424.56 1692.4 1478.92 1673.59 1519.82 1648.96 1544.65 1634 1556.12 1616.14 1557.55 1598.69 1557.55 1598.69 1557.92 1582.22 1567.16 1574.99L1761.64 1465.49C1772.84 1458.74 1776.52 1443.92 1769.87 1432.33 1763.13 1421.13 1748.31 1417.45 1736.72 1424.1L1548.98 1544.8C1538.27 1549.6 1523.54 1542.21 1523.54 1542.21 1507.44 1535.32 1486.29 1537.11 1461.46 1552.06 1424.26 1575.13 1378.81 1616.44 1378.81 1616.44L1384.09 1625.2Z"/></g></g></g><path d="M1916.41 1524.63C1929.66 1506.5 1953.18 1468.06 1944.45 1436.02 1934.25 1399.71 1893.63 1389.68 1881.64 1387.39 1893.91 1385.79 1924.17 1378.65 1925.23 1343.56 1925.92 1320.87 1900.99 1290.5 1885.7 1274.09 1882.56 1270.98 1877.7 1273.27 1878.83 1277.78 1883.03 1293.91 1887.63 1321.4 1884.19 1352.32 1884.47 1330.46 1877.43 1305.18 1849.28 1290.25 1830.01 1280.29 1797.88 1281.85 1778.6 1284.06 1774.34 1284.36 1774.04 1290.38 1777.69 1292.09 1793.23 1298.8 1818.64 1311.92 1840.22 1334.57 1830.84 1328.88 1819.36 1325.17 1804.76 1326.27 1784.39 1327.64 1762.73 1343.65 1749.87 1355.17 1746.76 1357.84 1749.55 1363.32 1753.56 1362.67 1767.18 1360.14 1788.8 1358.43 1812.6 1364.2 1810.77 1364.41 1808.84 1365.21 1807.16 1366.37 1799.78 1371.47 1798.19 1382.08 1803.62 1389.96 1805.85 1393.18 1809.08 1395.71 1812.82 1396.83 1745.61 1423.66 1664.98 1477.73 1642.16 1493.49 1638.46 1496.04 1637.67 1501.35 1640.39 1505.28L1656.7 1528.92C1659.67 1533.21 1665.83 1534.24 1669.7 1530.52 1704.54 1494.83 1760.26 1446.33 1828.82 1418.56 1826.52 1423.85 1827.05 1430.36 1830.76 1435.73 1836.19 1443.61 1846.68 1445.88 1854.07 1440.78 1855.08 1440.09 1855.75 1439.62 1856.51 1438.57 1846.32 1468.33 1828.67 1483.69 1822.15 1495.06 1820.46 1498.35 1823.17 1502.29 1826.6 1501.51 1842.06 1498.77 1872.83 1490.22 1889.49 1463.38 1897.78 1450.26 1897.66 1435.01 1894.36 1420.9 1907.54 1459.38 1909.44 1500.89 1909.34 1521.58 1908.72 1525.7 1914.13 1527.79 1916.41 1524.63Z" fill-rule="evenodd"/></g></svg>